<svg xmlns="http://www.w3.org/2000/svg" viewBox="0 0 329.81 143.75"><defs><style>.cls-1{fill:#fb0f00;}.cls-2{fill:#fa5b10;}.cls-3{fill:#ffe610;}.cls-4{fill:#278a2a;}.cls-5{fill:#0b4a9e;}.cls-6{fill:#961888;}</style></defs><g id="Capa_2" data-name="Capa 2"><g id="Capa_1-2" data-name="Capa 1"><path d="M107,118.66a5.32,5.32,0,0,1-3.46,1h-6V107h5.88a5.15,5.15,0,0,1,3.3.91,3.07,3.07,0,0,1,1.12,2.55,2.76,2.76,0,0,1-.4,1.45,3.19,3.19,0,0,1-1.09,1.1v.16a2.48,2.48,0,0,1,1.34,1,2.9,2.9,0,0,1,.49,1.69,3.4,3.4,0,0,1-1.22,2.77M104.31,110a1.19,1.19,0,0,0-.9-.36h-2.75v2.48h2.69a1.3,1.3,0,0,0,.94-.36,1.16,1.16,0,0,0,.37-.86,1.29,1.29,0,0,0-.35-.9m-3.65,4.4V117h2.92a1.35,1.35,0,0,0,1-.38,1.23,1.23,0,0,0,.39-.91,1.28,1.28,0,0,0-.35-.88,1.22,1.22,0,0,0-.89-.44Z"/><path d="M121.85,119.66h-3.29l-.78-2.27h-4.84l-.78,2.27h-3.29L113.7,107H117ZM113.76,115H117l-1.6-4.67Z"/><path d="M133,118.4l-.16.17c-.07.07-.24.19-.5.38a4.64,4.64,0,0,1-.85.47,8.29,8.29,0,0,1-1.22.37,7.5,7.5,0,0,1-1.58.17,6.19,6.19,0,0,1-4.74-1.9,7.15,7.15,0,0,1,0-9.42,6.18,6.18,0,0,1,4.74-1.89,7,7,0,0,1,2.4.39,4.86,4.86,0,0,1,1.49.77l.42.38-1.74,2.34a1.84,1.84,0,0,0-.28-.27,4.12,4.12,0,0,0-.84-.42,3.68,3.68,0,0,0-1.41-.26,3.2,3.2,0,0,0-2.45,1,4.22,4.22,0,0,0,0,5.31,3.23,3.23,0,0,0,2.45,1,3.9,3.9,0,0,0,1.39-.24,2.41,2.41,0,0,0,.88-.48l.26-.23Z"/><polygon points="146.08 119.68 143.02 119.68 143.02 114.54 137.84 114.54 137.84 119.68 134.79 119.68 134.79 107.02 137.84 107.02 137.84 112.14 143.02 112.14 143.02 107.02 146.08 107.02 146.08 119.68"/><rect x="148.94" y="107.02" width="3.05" height="12.64"/><polygon points="154.86 119.66 154.86 107.02 157.92 107.02 157.92 117.03 163.56 117.03 163.56 119.66 154.86 119.66"/><polygon points="165.69 119.66 165.69 107.02 168.75 107.02 168.75 117.03 174.39 117.03 174.39 119.66 165.69 119.66"/><polygon points="184.71 114.46 179.57 114.46 179.57 117.03 185.7 117.03 185.7 119.66 176.52 119.66 176.52 107.02 185.7 107.02 185.7 109.66 179.57 109.66 179.57 112.06 184.71 112.06 184.71 114.46"/><path d="M193.58,107a5.09,5.09,0,0,1,3.51,1.2,3.89,3.89,0,0,1,1.36,3.06,4.16,4.16,0,0,1-.62,2.26,3.91,3.91,0,0,1-1.74,1.49v.23l2.84,4.19v.21h-3.47l-2.63-4.15h-1.77v4.15H188V107Zm1.18,3a2.15,2.15,0,0,0-1.39-.41h-2.31v3.26h2.34a2.05,2.05,0,0,0,1.36-.43,1.46,1.46,0,0,0,.53-1.21,1.41,1.41,0,0,0-.53-1.21"/><path d="M212.37,119.66h-3.28l-.78-2.27h-4.84l-.78,2.27H199.4L204.22,107h3.33ZM204.29,115h3.2l-1.6-4.67Z"/><polygon points="211.58 107.02 221.75 107.02 221.75 109.66 218.19 109.66 218.19 119.66 215.14 119.66 215.14 109.66 211.58 109.66 211.58 107.02"/><path d="M224.46,118a6.61,6.61,0,0,1-1.82-4.69,6.52,6.52,0,0,1,1.82-4.67,6.11,6.11,0,0,1,4.64-1.92,6.18,6.18,0,0,1,4.68,1.92,6.49,6.49,0,0,1,1.83,4.67,6.57,6.57,0,0,1-1.83,4.69A6.19,6.19,0,0,1,229.1,120a6.12,6.12,0,0,1-4.64-1.93m7-2.06a4.12,4.12,0,0,0,0-5.26,3.15,3.15,0,0,0-2.4-1,3.06,3.06,0,0,0-2.35,1,4.12,4.12,0,0,0,0,5.26,3.07,3.07,0,0,0,2.35,1,3.16,3.16,0,0,0,2.4-1"/><path d="M251.28,108.22a3.92,3.92,0,0,1,1.36,3.06,3.85,3.85,0,0,1-1.34,3.08,5.21,5.21,0,0,1-3.53,1.15h-2.53v4.15h-3.05V107h5.58a5.12,5.12,0,0,1,3.51,1.2M249,110.07a2.15,2.15,0,0,0-1.39-.41h-2.32v3.26h2.34a2.08,2.08,0,0,0,1.37-.43,1.48,1.48,0,0,0,.53-1.21,1.43,1.43,0,0,0-.53-1.21"/><path d="M255.73,118a6.57,6.57,0,0,1-1.83-4.69,6.49,6.49,0,0,1,1.83-4.67,6.11,6.11,0,0,1,4.64-1.92,6.17,6.17,0,0,1,4.67,1.92,6.46,6.46,0,0,1,1.84,4.67A6.54,6.54,0,0,1,265,118a6.18,6.18,0,0,1-4.67,1.93,6.12,6.12,0,0,1-4.64-1.93m7-2.06a4.08,4.08,0,0,0,0-5.26,3.14,3.14,0,0,0-2.39-1,3.08,3.08,0,0,0-2.36,1,4.12,4.12,0,0,0,0,5.26,3.09,3.09,0,0,0,2.36,1,3.15,3.15,0,0,0,2.39-1"/><path d="M278.12,108.22a3.92,3.92,0,0,1,1.36,3.06,3.85,3.85,0,0,1-1.34,3.08,5.21,5.21,0,0,1-3.53,1.15h-2.53v4.15H269V107h5.58a5.12,5.12,0,0,1,3.51,1.2m-2.33,1.85a2.15,2.15,0,0,0-1.39-.41h-2.32v3.26h2.34a2.08,2.08,0,0,0,1.37-.43,1.48,1.48,0,0,0,.53-1.21,1.43,1.43,0,0,0-.53-1.21"/><path d="M282.83,118.32a5.74,5.74,0,0,1-1.54-4.11V107h3.06v7.19a3,3,0,0,0,.65,2,2.73,2.73,0,0,0,3.8,0,3,3,0,0,0,.64-2V107h3.06v7.19a5.79,5.79,0,0,1-1.52,4.12,5.9,5.9,0,0,1-8.15,0"/><polygon points="295.2 119.66 295.2 107.02 298.25 107.02 298.25 117.03 303.89 117.03 303.89 119.66 295.2 119.66"/><path d="M317.5,119.66h-3.28l-.78-2.27h-4.85l-.78,2.27h-3.28L309.35,107h3.33ZM309.42,115h3.2l-1.6-4.67Z"/><path d="M324.46,107a5.12,5.12,0,0,1,3.51,1.2,3.91,3.91,0,0,1,1.35,3.06,4.08,4.08,0,0,1-.62,2.26A3.88,3.88,0,0,1,327,115v.23l2.84,4.19v.21h-3.48l-2.63-4.15h-1.77v4.15h-3.05V107Zm1.18,3a2.17,2.17,0,0,0-1.39-.41h-2.32v3.26h2.34a2.08,2.08,0,0,0,1.37-.43,1.48,1.48,0,0,0,.52-1.21,1.43,1.43,0,0,0-.52-1.21"/><polygon points="96.78 130.84 106.95 130.84 106.95 133.47 103.39 133.47 103.39 143.48 100.34 143.48 100.34 133.47 96.78 133.47 96.78 130.84"/><path d="M114.58,130.84a5.12,5.12,0,0,1,3.51,1.2,3.92,3.92,0,0,1,1.36,3.05,4.1,4.1,0,0,1-.63,2.27,3.86,3.86,0,0,1-1.73,1.48v.23l2.84,4.2v.21h-3.48l-2.63-4.15h-1.77v4.15h-3V130.84Zm1.18,3a2.21,2.21,0,0,0-1.39-.41h-2.32v3.27h2.34a2.14,2.14,0,0,0,1.37-.43,1.5,1.5,0,0,0,.53-1.22,1.46,1.46,0,0,0-.53-1.21"/><path d="M133.37,143.48h-3.28l-.78-2.28h-4.85l-.78,2.28H120.4l4.82-12.64h3.33Zm-8.09-4.68h3.2l-1.6-4.68Z"/><polygon points="132.32 130.84 135.61 130.84 138.81 140.21 142.01 130.84 145.3 130.84 140.47 143.48 137.15 143.48 132.32 130.84"/><polygon points="154.86 138.27 149.72 138.27 149.72 140.84 155.85 140.84 155.85 143.48 146.67 143.48 146.67 130.84 155.85 130.84 155.85 133.47 149.72 133.47 149.72 135.87 154.86 135.87 154.86 138.27"/><path d="M159,139.73l.56.33a6.92,6.92,0,0,0,1.28.55,4.83,4.83,0,0,0,1.68.34c.93,0,1.39-.35,1.39-1a1,1,0,0,0-.43-.83,6.32,6.32,0,0,0-1.74-.69,8.42,8.42,0,0,1-3.14-1.51,3,3,0,0,1-1-2.39,3.58,3.58,0,0,1,1.23-2.85,5.46,5.46,0,0,1,3.66-1.07,10.06,10.06,0,0,1,2.7.34,5,5,0,0,1,1.62.68l.44.33-1.65,2.49a2.59,2.59,0,0,0-.42-.3,7.46,7.46,0,0,0-1.08-.46,4.62,4.62,0,0,0-1.61-.3c-.92,0-1.37.31-1.37.93a.8.8,0,0,0,.42.72,7.88,7.88,0,0,0,1.58.59,8.66,8.66,0,0,1,3.31,1.54,3,3,0,0,1,1.09,2.44,4,4,0,0,1-1.24,3,5.06,5.06,0,0,1-3.62,1.18,9.45,9.45,0,0,1-2.88-.42,6.33,6.33,0,0,1-1.86-.84l-.55-.42Z"/><polygon points="168.81 130.84 178.98 130.84 178.98 133.47 175.42 133.47 175.42 143.48 172.37 143.48 172.37 133.47 168.81 133.47 168.81 130.84"/><rect x="181.03" y="130.84" width="3.05" height="12.64"/><rect x="191.04" y="137.43" width="5.9" height="2.44"/><polygon points="202.6 130.84 212.78 130.84 212.78 133.47 209.22 133.47 209.22 143.48 206.16 143.48 206.16 133.47 202.6 133.47 202.6 130.84"/><path d="M220.4,130.84a5.09,5.09,0,0,1,3.51,1.2,3.88,3.88,0,0,1,1.36,3.05,4.17,4.17,0,0,1-.62,2.27,3.94,3.94,0,0,1-1.74,1.48v.23l2.84,4.2v.21h-3.47l-2.63-4.15h-1.77v4.15h-3.06V130.84Zm1.18,3a2.21,2.21,0,0,0-1.39-.41h-2.31v3.27h2.33a2.12,2.12,0,0,0,1.37-.43,1.48,1.48,0,0,0,.53-1.22,1.43,1.43,0,0,0-.53-1.21"/><path d="M239.2,143.48h-3.29l-.78-2.28h-4.84l-.78,2.28h-3.29L231,130.84h3.33Zm-8.09-4.68h3.2l-1.6-4.68Z"/><polygon points="252.03 143.48 249.67 143.48 243.6 136.1 243.6 143.48 240.57 143.48 240.57 130.84 242.93 130.84 248.99 138.08 248.99 130.84 252.03 130.84 252.03 143.48"/><path d="M255.76,139.73l.56.33a6.75,6.75,0,0,0,1.27.55,4.87,4.87,0,0,0,1.68.34c.93,0,1.39-.35,1.39-1a1,1,0,0,0-.43-.83,6.18,6.18,0,0,0-1.74-.69,8.29,8.29,0,0,1-3.13-1.51,3,3,0,0,1-1-2.39,3.59,3.59,0,0,1,1.24-2.85,5.45,5.45,0,0,1,3.65-1.07,10.19,10.19,0,0,1,2.71.34,5,5,0,0,1,1.61.68l.44.33-1.64,2.49a4,4,0,0,0-.42-.3,8.34,8.34,0,0,0-1.09-.46,4.62,4.62,0,0,0-1.61-.3c-.91,0-1.37.31-1.37.93a.8.8,0,0,0,.42.72,7.88,7.88,0,0,0,1.58.59,8.59,8.59,0,0,1,3.31,1.54,3,3,0,0,1,1.09,2.44,4,4,0,0,1-1.24,3,5,5,0,0,1-3.62,1.18,9.45,9.45,0,0,1-2.88-.42,6.6,6.6,0,0,1-1.86-.84l-.55-.42Z"/><rect class="cls-1" width="46.8" height="46.81"/><rect class="cls-2" x="46.81" width="46.8" height="46.81"/><rect class="cls-3" x="93.61" width="46.8" height="46.81"/><rect class="cls-4" x="140.42" width="46.8" height="46.81"/><rect class="cls-5" x="187.22" width="46.8" height="46.81"/><rect class="cls-6" x="93.8" y="46.81" width="46.8" height="46.8"/><rect class="cls-5" x="140.61" y="46.81" width="46.8" height="46.8"/><rect class="cls-4" x="187.41" y="46.81" width="46.8" height="46.8"/><rect class="cls-3" x="234.22" y="46.81" width="46.8" height="46.8"/><rect class="cls-2" x="281.03" y="46.81" width="46.8" height="46.8"/><polygon points="40.3 40.09 33.96 40.09 33.96 17.81 23.45 35.54 13.36 17.65 13.36 40.09 7.02 40.09 7.02 6.72 14.32 6.72 23.58 23.28 33.25 6.72 40.3 6.72 40.3 40.09"/><path d="M87.49,23.4a16.59,16.59,0,0,1-1.39,6.76,17.35,17.35,0,0,1-3.82,5.5,18.24,18.24,0,0,1-5.62,3.7,18,18,0,0,1-13.68,0,18.15,18.15,0,0,1-5.65-3.7,17.19,17.19,0,0,1-3.81-5.48,17.17,17.17,0,0,1,0-13.58,17.27,17.27,0,0,1,3.81-5.5A17.83,17.83,0,0,1,86.1,16.63a16.47,16.47,0,0,1,1.39,6.77M81,23.4a10.75,10.75,0,0,0-.88-4.31,11.59,11.59,0,0,0-2.4-3.55,11.72,11.72,0,0,0-3.58-2.42,10.64,10.64,0,0,0-4.34-.9,10.78,10.78,0,0,0-4.39.9,11.67,11.67,0,0,0-3.57,2.42,11.44,11.44,0,0,0-2.41,3.55,10.74,10.74,0,0,0-.87,4.31,10.87,10.87,0,0,0,.87,4.3,11.4,11.4,0,0,0,6,6,10.78,10.78,0,0,0,4.39.9,10.64,10.64,0,0,0,4.34-.9,11.31,11.31,0,0,0,6-6A10.88,10.88,0,0,0,81,23.4"/><path d="M132.88,34.08a18.57,18.57,0,0,1-6.06,4.84A17.34,17.34,0,0,1,119,40.71a18,18,0,0,1-12.62-5.05,17.16,17.16,0,0,1-3.8-5.48,17.21,17.21,0,0,1,0-13.55A17.38,17.38,0,0,1,112,7.43a18.16,18.16,0,0,1,7-1.34,17.22,17.22,0,0,1,7.87,1.8,18.22,18.22,0,0,1,5.94,4.67l-4.46,4.59a11.64,11.64,0,0,0-4-3.57,11.32,11.32,0,0,0-9.76-.46,11.81,11.81,0,0,0-3.6,2.42,11.36,11.36,0,0,0-2.44,3.55,10.7,10.7,0,0,0,0,8.59A11.2,11.2,0,0,0,111,31.22a11.63,11.63,0,0,0,3.6,2.42,10.93,10.93,0,0,0,4.4.9,10.63,10.63,0,0,0,5.47-1.4,12.46,12.46,0,0,0,4-3.69Z"/><polygon points="176.85 40.09 170.39 40.09 170.39 25.32 157.25 25.32 157.25 40.09 150.79 40.09 150.79 6.76 157.25 6.76 157.25 19.98 170.39 19.98 170.39 6.76 176.85 6.76 176.85 40.09"/><path d="M228.91,40.09h-7.09l-3.08-6.68H202.56l-3.13,6.68h-7.09L208.1,6.72h5.05ZM216.19,28l-5.54-12L205,28Z"/><path d="M134,80.9A18.44,18.44,0,0,1,128,85.74a17.22,17.22,0,0,1-7.87,1.8,18,18,0,0,1-7-1.36,17.77,17.77,0,0,1-5.66-3.69,17.38,17.38,0,0,1-3.8-5.48,17.23,17.23,0,0,1,0-13.56,17.38,17.38,0,0,1,9.46-9.2,18.16,18.16,0,0,1,7-1.33A17.34,17.34,0,0,1,128,54.71a18.48,18.48,0,0,1,5.94,4.67L129.44,64a11.84,11.84,0,0,0-4-3.57,11.27,11.27,0,0,0-9.76-.45,11.46,11.46,0,0,0-3.6,2.42,11.2,11.2,0,0,0-2.44,3.54,10.52,10.52,0,0,0-.9,4.32,10.39,10.39,0,0,0,.9,4.27,11.36,11.36,0,0,0,2.44,3.55,11.81,11.81,0,0,0,3.6,2.42,11.09,11.09,0,0,0,4.4.89A10.62,10.62,0,0,0,125.56,80a12.69,12.69,0,0,0,4-3.69Z"/><polygon points="174.93 86.91 152.91 86.91 152.91 53.59 174.93 53.59 174.93 58.92 159.25 58.92 159.25 66.89 174.72 66.89 174.72 72.1 159.25 72.1 159.25 81.28 174.93 81.28 174.93 86.91"/><polygon points="222.71 86.91 200.15 86.91 200.15 53.59 206.74 53.59 206.74 80.65 222.71 80.65 222.71 86.91"/><rect x="254.39" y="53.59" width="6.47" height="33.32"/><path d="M316.4,78.15a8.18,8.18,0,0,1-.81,3.57,9.49,9.49,0,0,1-2.28,3,11.12,11.12,0,0,1-3.46,2.06,12.07,12.07,0,0,1-4.42.78,28.41,28.41,0,0,1-3.9-.25,16.44,16.44,0,0,1-3.25-.8,15.31,15.31,0,0,1-2.92-1.39,27.34,27.34,0,0,1-2.9-2.07l4.59-4.63A13.19,13.19,0,0,0,301,80.76a12.24,12.24,0,0,0,4.17.69,5.45,5.45,0,0,0,1.73-.27,5.14,5.14,0,0,0,1.42-.73,3.68,3.68,0,0,0,1-1.09A2.79,2.79,0,0,0,309.6,78a3.37,3.37,0,0,0-.29-1.42,3.46,3.46,0,0,0-1-1.21,10.38,10.38,0,0,0-2.09-1.19c-.89-.4-2-.86-3.42-1.36a30.85,30.85,0,0,1-3.52-1.52,12.55,12.55,0,0,1-3-2.06,9.84,9.84,0,0,1-2-2.84,9.65,9.65,0,0,1,.09-7.76,9.1,9.1,0,0,1,2.33-3.06,10.82,10.82,0,0,1,3.46-2,12.44,12.44,0,0,1,4.28-.71,18.15,18.15,0,0,1,6.46,1,14.1,14.1,0,0,1,4.67,2.92L311,61.34a9.16,9.16,0,0,0-2.8-1.85,9.29,9.29,0,0,0-3.62-.65,5.4,5.4,0,0,0-1.78.29,5,5,0,0,0-1.39.77,3.76,3.76,0,0,0-.94,1.13,2.74,2.74,0,0,0-.36,1.36,3.06,3.06,0,0,0,.34,1.44,3.86,3.86,0,0,0,1.12,1.25,11.84,11.84,0,0,0,2.11,1.21c.88.4,2,.84,3.27,1.31a24.51,24.51,0,0,1,4.3,1.92,12.06,12.06,0,0,1,2.92,2.29,8.27,8.27,0,0,1,1.67,2.82,10.75,10.75,0,0,1,.54,3.52"/></g></g></svg>